<svg xmlns="http://www.w3.org/2000/svg" width="24" height="24" viewBox="0 0 24 24"><g fill="#276dff"><path d="M12 20.156a8.157 8.157 0 1 0 0-16.313a8.157 8.157 0 0 0 0 16.313M21 12a9 9 0 1 1-18 0a9 9 0 0 1 18 0"/><path fill-opacity="0.6" d="M12 5.25v4.781l3.938 1.806z"/><path d="m12 5.25l-3.937 6.587l3.937-1.8z"/><path fill-opacity="0.6" d="M12 14.936v3.252l3.938-5.597z"/><path d="M12 18.188v-3.252l-3.937-2.345z"/><path fill-opacity="0.2" d="m12 14.188l3.938-2.352l-3.938-1.8z"/><path fill-opacity="0.6" d="M8.063 11.837L12 14.188v-4.157z"/></g></svg>
